<?xml version="1.0" encoding="UTF-8" standalone="no"?>
<svg
   xmlns:dc="http://purl.org/dc/elements/1.1/"
   xmlns:cc="http://creativecommons.org/ns#"
   xmlns:rdf="http://www.w3.org/1999/02/22-rdf-syntax-ns#"
   xmlns:svg="http://www.w3.org/2000/svg"
   xmlns="http://www.w3.org/2000/svg"
   width="100mm"
   height="200mm"
   viewBox="0 0 100 200"
   version="1.1"
   id="svg8">
  <defs
     id="defs2" />
  <metadata
     id="metadata5">
    <rdf:RDF>
      <cc:Work
         rdf:about="">
        <dc:format>image/svg+xml</dc:format>
        <dc:type
           rdf:resource="http://purl.org/dc/dcmitype/StillImage" />
        <dc:title></dc:title>
      </cc:Work>
    </rdf:RDF>
  </metadata>
  <g
     id="layer"
     style="display:inline">
    <g
       id="board">
      <path
         d="m 49.362241,30.112597 c -0.301969,0.658403 -1.537298,3.566352 -2.772624,6.446868 l -2.251041,5.26723 -1.564748,0.137167 c -0.851003,0.109734 -4.062854,0.384069 -7.137448,0.630971 -3.04714,0.274335 -5.517792,0.576103 -5.490342,0.685836 0.05491,0.0823 2.443202,2.194679 5.298181,4.636259 2.882431,2.469014 5.243279,4.526525 5.27073,4.636259 0.0549,0.0823 -0.631388,3.182283 -1.509845,6.885804 -0.878454,3.703521 -1.509845,6.748637 -1.400037,6.803504 0.08236,0.05487 2.141236,-1.097341 4.529534,-2.523882 2.388299,-1.426541 4.392274,-2.551313 4.447178,-2.496447 0.0549,0.05487 -3.925594,6.364568 -8.839454,13.991077 C 27.977352,90.68573 28.196966,90.246789 29.926423,91.9751 l 0.93336,0.932738 h 3.596175 c 1.976522,0 3.596174,0.0549 3.596174,0.137171 0,0.0823 -5.13347,8.312341 -11.392462,18.243261 -6.286445,9.95837 -11.529724,18.43531 -11.694434,18.84682 -0.384324,1.04246 -0.05491,2.16723 0.905907,2.96282 l 0.823551,0.68582 h 5.90212 c 4.996215,0 5.874668,0.0549 5.764863,0.38408 -0.08236,0.21947 -6.176638,9.87605 -13.561152,21.48042 -12.1336601,19.12113 -13.3689871,21.17864 -13.3964391,22.22112 0,0.90531 0.164711,1.34424 0.768648,1.92034 l 0.741197,0.76814 17.7063591,0.0823 17.70636,0.0548 v 7.43447 c 0,8.17518 0.109808,8.91589 1.619653,9.68402 1.235326,0.6584 19.133849,0.6584 20.369175,0 1.509845,-0.76813 1.619652,-1.50884 1.619652,-9.71145 v -7.40704 h 17.267132 c 10.568916,0 17.569103,-0.10974 17.98088,-0.27434 0.988263,-0.35663 1.866709,-1.86548 1.702006,-2.90794 -0.05494,-0.49381 -5.792314,-9.93093 -13.478796,-22.22113 l -13.341538,-21.37068 5.874668,-0.13717 c 5.270733,-0.10973 5.957023,-0.19203 6.478609,-0.6584 0.768649,-0.71328 1.207873,-2.11238 0.878454,-2.93538 -0.137258,-0.38407 -5.215827,-8.50438 -11.282659,-18.07868 -6.09428,-9.57425 -11.310107,-17.83173 -11.584625,-18.325532 l -0.549034,-0.877869 h 3.623627 c 3.733435,0 4.447178,-0.1646 5.27073,-1.207069 0.988261,-1.207082 0.658842,-2.386721 -1.702006,-6.007936 C 62.319453,75.322976 53.479999,61.496502 53.562356,61.414201 c 0.0549,-0.05486 1.976525,1.015039 4.255016,2.414148 2.305945,1.371674 4.282469,2.469012 4.392277,2.414146 0.08235,-0.05486 -0.549037,-3.099983 -1.427491,-6.803504 -0.878456,-3.703521 -1.564748,-6.803504 -1.509845,-6.885804 0.02745,-0.109734 2.415752,-2.167245 5.270731,-4.636259 2.882431,-2.44158 5.243279,-4.553958 5.298183,-4.636259 0.02745,-0.109733 -2.443205,-0.411501 -5.490345,-0.685836 -3.074593,-0.246902 -6.286445,-0.521237 -7.137448,-0.630971 l -1.564748,-0.137167 -2.635364,-6.227401 c -1.482394,-3.401753 -2.772624,-6.309702 -2.909882,-6.44687 -0.137261,-0.137167 -0.43923,0.246902 -0.741199,0.960173 z"
         id="path64-8"
         style="display:inline;fill:#005a26;fill-opacity:1;stroke:none;stroke-width:0.0274426" />
      <g
         id="layer4"
         style="mix-blend-mode:normal" />
    </g>
    <g
       id="silkscreen"
       style="opacity:0">
      <path
         d="m 49.362241,30.112597 c -0.301969,0.658403 -1.537298,3.566352 -2.772624,6.446868 l -2.251041,5.26723 -1.564748,0.137167 c -0.851003,0.109734 -4.062854,0.384069 -7.137448,0.630971 -3.04714,0.274335 -5.517792,0.576103 -5.490342,0.685836 0.05491,0.0823 2.443202,2.194679 5.298181,4.636259 2.882431,2.469014 5.243279,4.526525 5.27073,4.636259 0.0549,0.0823 -0.631388,3.182283 -1.509845,6.885804 -0.878454,3.703521 -1.509845,6.748637 -1.400037,6.803504 0.08236,0.05487 2.141236,-1.097341 4.529534,-2.523882 2.388299,-1.426541 4.392274,-2.551313 4.447178,-2.496447 0.0549,0.05487 -3.925594,6.364568 -8.839454,13.991077 C 27.977352,90.68573 28.196966,90.246789 29.926423,91.9751 l 0.93336,0.932738 h 3.596175 c 1.976522,0 3.596174,0.0549 3.596174,0.137171 0,0.0823 -5.13347,8.312341 -11.392462,18.243261 -6.286445,9.95837 -11.529724,18.43531 -11.694434,18.84682 -0.384324,1.04246 -0.05491,2.16723 0.905907,2.96282 l 0.823551,0.68582 h 5.90212 c 4.996215,0 5.874668,0.0549 5.764863,0.38408 -0.08236,0.21947 -6.176638,9.87605 -13.561152,21.48042 -12.1336601,19.12113 -13.3689871,21.17864 -13.3964391,22.22112 0,0.90531 0.164711,1.34424 0.768648,1.92034 l 0.741197,0.76814 17.7063591,0.0823 17.70636,0.0548 v 7.43447 c 0,8.17518 0.109808,8.91589 1.619653,9.68402 1.235326,0.6584 19.133849,0.6584 20.369175,0 1.509845,-0.76813 1.619652,-1.50884 1.619652,-9.71145 v -7.40704 h 17.267132 c 10.568916,0 17.569103,-0.10974 17.98088,-0.27434 0.988263,-0.35663 1.866709,-1.86548 1.702006,-2.90794 -0.05494,-0.49381 -5.792314,-9.93093 -13.478796,-22.22113 l -13.341538,-21.37068 5.874668,-0.13717 c 5.270733,-0.10973 5.957023,-0.19203 6.478609,-0.6584 0.768649,-0.71328 1.207873,-2.11238 0.878454,-2.93538 -0.137258,-0.38407 -5.215827,-8.50438 -11.282659,-18.07868 -6.09428,-9.57425 -11.310107,-17.83173 -11.584625,-18.325532 l -0.549034,-0.877869 h 3.623627 c 3.733435,0 4.447178,-0.1646 5.27073,-1.207069 0.988261,-1.207082 0.658842,-2.386721 -1.702006,-6.007936 C 62.319453,75.322976 53.479999,61.496502 53.562356,61.414201 c 0.0549,-0.05486 1.976525,1.015039 4.255016,2.414148 2.305945,1.371674 4.282469,2.469012 4.392277,2.414146 0.08235,-0.05486 -0.549037,-3.099983 -1.427491,-6.803504 -0.878456,-3.703521 -1.564748,-6.803504 -1.509845,-6.885804 0.02745,-0.109734 2.415752,-2.167245 5.270731,-4.636259 2.882431,-2.44158 5.243279,-4.553958 5.298183,-4.636259 0.02745,-0.109733 -2.443205,-0.411501 -5.490345,-0.685836 -3.074593,-0.246902 -6.286445,-0.521237 -7.137448,-0.630971 l -1.564748,-0.137167 -2.635364,-6.227401 c -1.482394,-3.401753 -2.772624,-6.309702 -2.909882,-6.44687 -0.137261,-0.137167 -0.43923,0.246902 -0.741199,0.960173 z"
         id="path944"
         style="display:inline;fill:#ffffff;fill-opacity:1;stroke:none;stroke-width:8;stroke-miterlimit:4;stroke-dasharray:none" />
      <g
         id="g946"
         style="mix-blend-mode:normal" />
    </g>
  </g>
</svg>
