<?xml version="1.0" standalone="no"?>
<!DOCTYPE svg PUBLIC "-//W3C//DTD SVG 20010904//EN"
 "http://www.w3.org/TR/2001/REC-SVG-20010904/DTD/svg10.dtd">
<svg version="1.0" xmlns="http://www.w3.org/2000/svg"
 width="356.000000pt" height="617.000000pt" viewBox="0 0 356.000000 617.000000"
 preserveAspectRatio="xMidYMid meet">
<metadata>
Created by potrace 1.16, written by Peter Selinger 2001-2019
</metadata>
<g transform="translate(0.000000,617.000000) scale(0.100000,-0.100000)"
fill="#000000" stroke="none">
<path d="M1752 6129 c-11 -24 -56 -130 -101 -235 l-82 -192 -57 -5 c-31 -4
-148 -14 -260 -23 -111 -10 -201 -21 -200 -25 2 -3 89 -80 193 -169 105 -90
191 -165 192 -169 2 -3 -23 -116 -55 -251 -32 -135 -55 -246 -51 -248 3 -2 78
40 165 92 87 52 160 93 162 91 2 -2 -143 -232 -322 -510 -363 -564 -355 -548
-292 -611 l34 -34 131 0 c72 0 131 -2 131 -5 0 -3 -187 -303 -415 -665 -229
-363 -420 -672 -426 -687 -14 -38 -2 -79 33 -108 l30 -25 215 0 c182 0 214 -2
210 -14 -3 -8 -225 -360 -494 -783 -442 -697 -487 -772 -488 -810 0 -33 6 -49
28 -70 l27 -28 645 -3 645 -2 0 -271 c0 -298 4 -325 59 -353 45 -24 697 -24
742 0 55 28 59 55 59 354 l0 270 629 0 c385 0 640 4 655 10 36 13 68 68 62
106 -2 18 -211 362 -491 810 l-486 779 214 5 c192 4 217 7 236 24 28 26 44 77
32 107 -5 14 -190 310 -411 659 -222 349 -412 650 -422 668 l-20 32 132 0
c136 0 162 6 192 44 36 44 24 87 -62 219 -246 378 -568 882 -565 885 2 2 72
-37 155 -88 84 -50 156 -90 160 -88 3 2 -20 113 -52 248 -32 135 -57 248 -55
251 1 4 88 79 192 169 105 89 191 166 193 169 1 4 -89 15 -200 25 -112 9 -229
19 -260 23 l-57 5 -96 227 c-54 124 -101 230 -106 235 -5 5 -16 -9 -27 -35z"/>
</g>
</svg>
